<svg enable-background="new 0 0 122.88 92.12" viewBox="0 0 122.88 92.12" xmlns="http://www.w3.org/2000/svg"><path d="m8.36 92.12h19.54v-47.45l-27.9-20.91v60.08c0 4.58 3.78 8.28 8.36 8.28z" fill="#4285f4"/><path d="m94.97 92.12h19.54c4.67 0 8.36-3.78 8.36-8.36v-60l-27.9 20.91z" fill="#34a853"/><path d="m94.97 8.4v36.27l27.91-20.91v-11.18c0-10.37-11.82-16.25-20.11-10.05z" fill="#fbbc04"/><path d="m27.9 44.67v-36.27l33.54 25.17 33.53-25.17v36.27l-33.53 25.09z" fill="#ea4335"/><path d="m0 12.58v11.18l27.91 20.91v-36.27l-7.8-5.87c-8.29-6.19-20.11-.24-20.11 10.05z" fill="#c5221f"/></svg>