<svg viewBox="0 0 122.88 122.31" xmlns="http://www.w3.org/2000/svg"><g fill-rule="evenodd"><path d="m27.75 0h67.38a27.83 27.83 0 0 1 27.75 27.75v66.82a27.83 27.83 0 0 1 -27.75 27.74h-67.38a27.83 27.83 0 0 1 -27.75-27.74v-66.82a27.83 27.83 0 0 1 27.75-27.75z" fill="#0a66c2"/><path d="m49.19 47.41h15.53v8h.22c2.17-3.88 7.45-8 15.34-8 16.39 0 19.42 10.2 19.42 23.47v28.06h-16.19v-24.94c0-5.71-.12-13.06-8.42-13.06s-9.72 6.21-9.72 12.65v25.4h-16.18zm-9.19-15.62a8.42 8.42 0 1 1 -8.42-8.42 8.43 8.43 0 0 1 8.42 8.42zm-16.82 15.62h16.82v51.53h-16.82z" fill="#fff"/></g></svg>